<svg width="18" height="19" viewBox="0 0 18 19" fill="none" xmlns="http://www.w3.org/2000/svg">
<path d="M10.5 2.20215V5.30005C10.5 5.72009 10.5 5.93011 10.5817 6.09055C10.6537 6.23167 10.7684 6.3464 10.9095 6.41831C11.0699 6.50005 11.28 6.50005 11.7 6.50005H14.7979M10.5 13.25H6M12 10.25H6M15 7.99117V13.4C15 14.6601 15 15.2902 14.7548 15.7715C14.539 16.1948 14.1948 16.539 13.7715 16.7548C13.2902 17 12.6601 17 11.4 17H6.6C5.33988 17 4.70982 17 4.22852 16.7548C3.80516 16.539 3.46095 16.1948 3.24524 15.7715C3 15.2902 3 14.6601 3 13.4V5.6C3 4.33988 3 3.70982 3.24524 3.22852C3.46095 2.80516 3.80516 2.46095 4.22852 2.24524C4.70982 2 5.33988 2 6.6 2H9.00883C9.55916 2 9.83432 2 10.0933 2.06217C10.3229 2.11729 10.5423 2.2082 10.7436 2.33156C10.9707 2.4707 11.1653 2.66527 11.5544 3.05442L13.9456 5.44558C14.3347 5.83473 14.5293 6.0293 14.6684 6.25636C14.7918 6.45767 14.8827 6.67715 14.9378 6.90673C15 7.16568 15 7.44084 15 7.99117Z" stroke="#707D89" stroke-width="1.3" stroke-linecap="round" stroke-linejoin="round"/>
</svg>
