<svg width="18" height="19" viewBox="0 0 18 19" fill="none" xmlns="http://www.w3.org/2000/svg">
<path d="M10.5 2.20215V5.30005C10.5 5.72009 10.5 5.93011 10.5817 6.09055C10.6537 6.23167 10.7684 6.3464 10.9095 6.41831C11.0699 6.50005 11.28 6.50005 11.7 6.50005H14.7979M15 7.99117V13.4C15 14.6601 15 15.2902 14.7548 15.7715C14.539 16.1948 14.1948 16.539 13.7715 16.7548C13.2902 17 12.6601 17 11.4 17H6.6C5.33988 17 4.70982 17 4.22852 16.7548C3.80516 16.539 3.46095 16.1948 3.24524 15.7715C3 15.2902 3 14.6601 3 13.4V5.6C3 4.33988 3 3.70982 3.24524 3.22852C3.46095 2.80516 3.80516 2.46095 4.22852 2.24524C4.70982 2 5.33988 2 6.6 2H9.00883C9.55916 2 9.83432 2 10.0933 2.06217C10.3229 2.11729 10.5423 2.2082 10.7436 2.33156C10.9707 2.4707 11.1653 2.66527 11.5544 3.05442L13.9456 5.44558C14.3347 5.83473 14.5293 6.0293 14.6684 6.25636C14.7918 6.45767 14.8827 6.67715 14.9378 6.90673C15 7.16568 15 7.44084 15 7.99117Z" stroke="#707D89" stroke-width="1.3" stroke-linecap="round" stroke-linejoin="round"/>
<path d="M11.6882 11.12H12.8458V11.789H11.6882V11.12ZM11.7483 12.6309H10.8613V10H12.9999V10.669H11.7483V12.6309Z" fill="#707D89"/>
<path d="M7.75635 12.6309V10H9.05299C9.34615 10 9.60422 10.0539 9.82722 10.1616C10.0502 10.2668 10.2244 10.4172 10.3496 10.6126C10.4749 10.8081 10.5376 11.0411 10.5376 11.3117C10.5376 11.5848 10.4749 11.8203 10.3496 12.0183C10.2244 12.2137 10.0502 12.3653 9.82722 12.473C9.60422 12.5783 9.34615 12.6309 9.05299 12.6309H7.75635ZM8.64333 11.9393H9.01541C9.14069 11.9393 9.24968 11.9155 9.34239 11.8679C9.4376 11.8203 9.51152 11.7502 9.56413 11.6575C9.61675 11.5622 9.64306 11.447 9.64306 11.3117C9.64306 11.1789 9.61675 11.0661 9.56413 10.9734C9.51152 10.8807 9.4376 10.8106 9.34239 10.763C9.24968 10.7153 9.14069 10.6915 9.01541 10.6915H8.64333V11.9393Z" fill="#707D89"/>
<path d="M5 12.6309V10H6.26658C6.51213 10 6.72385 10.0401 6.90175 10.1203C7.08215 10.2004 7.22121 10.3157 7.31893 10.466C7.41665 10.6139 7.46551 10.7893 7.46551 10.9922C7.46551 11.1952 7.41665 11.3706 7.31893 11.5184C7.22121 11.6662 7.08215 11.7815 6.90175 11.8642C6.72385 11.9443 6.51213 11.9844 6.26658 11.9844H5.49235L5.88698 11.6048V12.6309H5ZM5.88698 11.7026L5.49235 11.3004H6.2102C6.33298 11.3004 6.42318 11.2728 6.48081 11.2177C6.54094 11.1626 6.57101 11.0874 6.57101 10.9922C6.57101 10.897 6.54094 10.8218 6.48081 10.7667C6.42318 10.7116 6.33298 10.684 6.2102 10.684H5.49235L5.88698 10.2819V11.7026Z" fill="#707D89"/>
</svg>
