<svg width="32" height="32" viewBox="0 0 32 32" fill="none" xmlns="http://www.w3.org/2000/svg">
<g clip-path="url(#clip0_5122_4130)">
<path d="M13.3173 17.4208C13.2309 17.4208 11.4195 17.4214 10.5841 17.4205C10.154 17.4203 10.0005 17.2657 10.0005 16.8329C9.99997 15.721 9.9997 14.6092 10.0005 13.4974C10.0008 13.07 10.163 12.907 10.5876 12.9067C11.4231 12.9061 13.2246 12.9064 13.3173 12.9064C13.3173 12.8302 13.317 11.2251 13.3173 10.4859C13.3178 9.39302 13.5128 8.34692 14.068 7.38909C14.6365 6.40872 15.4637 5.73717 16.5238 5.34887C17.2028 5.09999 17.9076 5.00072 18.6281 5.00017C19.5295 4.99962 20.431 5.00044 21.3327 5.00209C21.7202 5.00264 21.8921 5.17397 21.8929 5.56419C21.8945 6.61002 21.8945 7.65584 21.8929 8.70139C21.8923 9.09574 21.7276 9.25414 21.3313 9.25854C20.5924 9.26652 19.8529 9.26157 19.1148 9.29127C18.3693 9.29127 17.9772 9.65537 17.9772 10.427C17.9593 11.2432 17.9697 12.0602 17.9697 12.9061C18.0396 12.9061 20.1612 12.9059 21.1529 12.9061C21.6033 12.9061 21.7573 13.061 21.7573 13.5139C21.7573 14.6197 21.757 15.7257 21.7562 16.8315C21.7559 17.2778 21.6113 17.4203 21.1581 17.4205C20.1664 17.4211 18.0531 17.4208 17.9607 17.4208V26.3707C17.9607 26.8478 17.8105 26.9999 17.3397 26.9999C16.1919 26.9999 15.0437 27.0002 13.8959 26.9999C13.4798 26.9999 13.3176 26.8382 13.3176 26.4221C13.3173 23.5074 13.3173 17.5231 13.3173 17.4208Z" fill="#707D89"/>
</g>
<defs>
<clipPath id="clip0_5122_4130">
<rect width="32" height="32" fill="white"/>
</clipPath>
</defs>
</svg>
