<svg width="32" height="32" viewBox="0 0 32 32" fill="none" xmlns="http://www.w3.org/2000/svg">
<path d="M26.9997 26.9998V18.9424C26.9997 14.9824 26.1472 11.9574 21.5272 11.9574C19.2997 11.9574 17.8147 13.1674 17.2097 14.3224H17.1547V12.3149H12.7822V26.9998H17.3472V19.7124C17.3472 17.7874 17.7047 15.9449 20.0697 15.9449C22.4072 15.9449 22.4347 18.1174 22.4347 19.8224V26.9723H26.9997V26.9998Z" fill="#707D89"/>
<path d="M5.35645 12.3149H9.92142V26.9999H5.35645V12.3149Z" fill="#707D89"/>
<path d="M7.63921 5C6.18161 5 4.99902 6.18258 4.99902 7.64019C4.99902 9.09779 6.18161 10.3079 7.63921 10.3079C9.09681 10.3079 10.2794 9.09779 10.2794 7.64019C10.2794 6.18258 9.09681 5 7.63921 5Z" fill="#707D89"/>
</svg>
