<svg width="32" height="32" viewBox="0 0 32 32" fill="none" xmlns="http://www.w3.org/2000/svg">
<path d="M21.5641 17.394C21.5214 17.3718 19.9249 16.5192 19.6412 16.4085C19.5254 16.3634 19.4014 16.3194 19.2694 16.3194C19.0538 16.3194 18.8727 16.4359 18.7317 16.6647C18.5722 16.9218 18.0894 17.5338 17.9402 17.7166C17.9208 17.7408 17.8942 17.7696 17.8782 17.7696C17.8639 17.7696 17.6169 17.6593 17.5421 17.624C15.8295 16.8173 14.5296 14.8772 14.3513 14.55C14.3258 14.503 14.3248 14.4816 14.3246 14.4816C14.3308 14.4567 14.3884 14.3941 14.4181 14.3618C14.5051 14.2685 14.5993 14.1455 14.6905 14.0265C14.7336 13.9701 14.7768 13.9137 14.8193 13.8605C14.9515 13.6936 15.0104 13.5641 15.0787 13.414L15.1144 13.3361C15.2811 12.977 15.1387 12.674 15.0927 12.5761C15.055 12.4942 14.3809 10.7299 14.3092 10.5445C14.1369 10.0972 13.9091 9.88892 13.5927 9.88892C13.5633 9.88892 13.5927 9.88892 13.4695 9.89454C13.3196 9.90141 12.503 10.018 12.1419 10.2648C11.7591 10.5266 11.1113 11.3611 11.1113 12.8286C11.1113 14.1493 11.8842 15.3964 12.216 15.8707C12.2243 15.8826 12.2394 15.9069 12.2614 15.9418C13.5322 17.9544 15.1163 19.446 16.7223 20.1417C18.2684 20.8115 19.0005 20.8889 19.4167 20.8889H19.4168C19.5917 20.8889 19.7317 20.874 19.8552 20.8609L19.9335 20.8528C20.4676 20.8014 21.6414 20.1418 21.9084 19.3372C22.1187 18.7035 22.1741 18.011 22.0342 17.7597C21.9384 17.5889 21.7732 17.5029 21.5641 17.394Z" fill="#707D89"/>
<path d="M16.1953 5C10.237 5 5.38956 9.811 5.38956 15.7245C5.38956 17.6371 5.90141 19.5094 6.87106 21.1479L5.01513 26.6226C4.98055 26.7246 5.00627 26.8375 5.08177 26.9144C5.13627 26.97 5.2102 27 5.2857 27C5.31463 27 5.34377 26.9956 5.3722 26.9866L11.0808 25.1726C12.6429 26.0072 14.4085 26.4478 16.1953 26.4478C22.1531 26.4479 27 21.6374 27 15.7245C27 9.811 22.1531 5 16.1953 5ZM16.1953 24.2139C14.5139 24.2139 12.8854 23.7284 11.4856 22.8098C11.4385 22.7789 11.3838 22.763 11.3288 22.763C11.2998 22.763 11.2706 22.7674 11.2423 22.7764L8.38263 23.6854L9.30577 20.9619C9.33563 20.8738 9.3207 20.7766 9.2657 20.7014C8.1997 19.2449 7.6362 17.5239 7.6362 15.7245C7.6362 11.0429 11.4758 7.234 16.1952 7.234C20.9141 7.234 24.7532 11.0429 24.7532 15.7245C24.7533 20.4056 20.9142 24.2139 16.1953 24.2139Z" fill="#707D89"/>
</svg>
