<svg width="32" height="32" viewBox="0 0 32 32" fill="none" xmlns="http://www.w3.org/2000/svg">
<path d="M28.7012 16.192C28.6394 14.7098 27.4042 13.5363 25.8911 13.5672C25.2117 13.5981 24.5941 13.876 24.1309 14.3083C22.0311 12.857 19.5298 12.085 16.9668 12.0232L18.1711 6.24866L22.1546 7.05153C22.2781 8.07057 23.1737 8.81169 24.1927 8.68817C25.2117 8.56465 25.9529 7.66913 25.8293 6.6501C25.7058 5.63106 24.8103 4.88994 23.7913 5.01346C23.2045 5.07522 22.6796 5.4149 22.4017 5.90898L17.8623 5.01346C17.5535 4.9517 17.2447 5.13698 17.1829 5.44578L15.8242 11.8997C13.2303 11.9306 10.729 12.7334 8.56743 14.1848C7.48663 13.1658 5.75735 13.1967 4.73831 14.3083C3.71927 15.3891 3.75015 17.1184 4.86183 18.1374C5.07799 18.3227 5.32503 18.508 5.60295 18.6315C5.57207 18.9094 5.57207 19.1874 5.60295 19.4344C5.60295 23.6032 10.4511 27 16.4418 27C22.4325 27 27.2807 23.6341 27.2807 19.4344C27.3116 19.1565 27.3116 18.8786 27.2807 18.6315C28.1453 18.1992 28.7321 17.2419 28.7012 16.192ZM10.0805 18.0757C10.0805 17.0566 10.9143 16.2229 11.9333 16.2229C12.9524 16.2229 13.7861 17.0566 13.7861 18.0757C13.7861 19.0947 12.9524 19.9285 11.9333 19.9285C10.9143 19.9285 10.0805 19.0947 10.0805 18.0757ZM20.8885 23.2018C19.5607 24.1899 17.9549 24.7149 16.3183 24.6222C14.6817 24.684 13.045 24.1899 11.7481 23.2018C11.5628 22.9856 11.5937 22.6768 11.8098 22.4915C11.9951 22.3371 12.2421 22.3371 12.4583 22.4915C13.57 23.2944 14.9287 23.7267 16.3183 23.665C17.7079 23.7267 19.0666 23.3562 20.2092 22.5224C20.4253 22.3371 20.7341 22.3371 20.9503 22.5224C21.1356 22.7386 21.1356 23.0474 20.9503 23.2635V23.2018H20.8885ZM20.5797 20.0211C19.5607 20.0211 18.7269 19.1874 18.7269 18.1683C18.7269 17.1493 19.5607 16.3155 20.5797 16.3155C21.5988 16.3155 22.4325 17.1493 22.4325 18.1683C22.4634 19.1874 21.6914 20.052 20.6415 20.0829C20.6106 20.0829 20.5797 20.0829 20.5489 20.0829L20.5797 20.0211Z" fill="#707D89"/>
</svg>
