<svg width="40" height="40" viewBox="0 0 40 40" fill="none" xmlns="http://www.w3.org/2000/svg">
<path d="M21.6666 11.6667L19.8074 7.94819C19.2723 6.87801 19.0048 6.34288 18.6056 5.95194C18.2526 5.60622 17.8272 5.34329 17.3601 5.18218C16.8319 5 16.2337 5 15.0371 5H8.66665C6.7998 5 5.86638 5 5.15334 5.36331C4.52614 5.68289 4.0162 6.19282 3.69662 6.82003C3.33331 7.53307 3.33331 8.46649 3.33331 10.3333V11.6667M3.33331 11.6667H28.6666C31.4669 11.6667 32.867 11.6667 33.9366 12.2116C34.8774 12.691 35.6423 13.4559 36.1217 14.3967C36.6666 15.4663 36.6666 16.8664 36.6666 19.6667V27C36.6666 29.8003 36.6666 31.2004 36.1217 32.27C35.6423 33.2108 34.8774 33.9757 33.9366 34.455C32.867 35 31.4669 35 28.6666 35H11.3333C8.53305 35 7.13292 35 6.06336 34.455C5.12255 33.9757 4.35765 33.2108 3.87828 32.27C3.33331 31.2004 3.33331 29.8003 3.33331 27V11.6667ZM25.8333 29.1667L23.3333 26.6667M25 22.5C25 25.7217 22.3883 28.3333 19.1666 28.3333C15.945 28.3333 13.3333 25.7217 13.3333 22.5C13.3333 19.2783 15.945 16.6667 19.1666 16.6667C22.3883 16.6667 25 19.2783 25 22.5Z" stroke="#37609B" stroke-width="2" stroke-linecap="round" stroke-linejoin="round"/>
</svg>
