<svg width="40" height="40" viewBox="0 0 40 40" fill="none" xmlns="http://www.w3.org/2000/svg">
<path d="M33.3334 20.8333V11.3333C33.3334 8.53305 33.3334 7.13292 32.7884 6.06336C32.309 5.12255 31.5441 4.35765 30.6033 3.87828C29.5337 3.33331 28.1336 3.33331 25.3334 3.33331H14.6667C11.8664 3.33331 10.4663 3.33331 9.39673 3.87828C8.45592 4.35765 7.69102 5.12255 7.21165 6.06336C6.66669 7.13292 6.66669 8.53305 6.66669 11.3333V28.6666C6.66669 31.4669 6.66669 32.867 7.21165 33.9366C7.69102 34.8774 8.45592 35.6423 9.39673 36.1217C10.4663 36.6666 11.8663 36.6666 14.6665 36.6666H20.8334M23.3334 18.3333H13.3334M16.6667 25H13.3334M26.6667 11.6666H13.3334M25 31.6666L30 36.6666M30 36.6666L35 31.6666M30 36.6666V26.6666" stroke="#37609B" stroke-width="2" stroke-linecap="round" stroke-linejoin="round"/>
</svg>
