<svg width="40" height="40" viewBox="0 0 40 40" fill="none" xmlns="http://www.w3.org/2000/svg">
<path d="M15 19.1667L18.3333 22.5L25.8333 15M33.3333 20C33.3333 28.1807 24.41 34.1307 21.1633 36.0248C20.7943 36.24 20.6098 36.3477 20.3494 36.4035C20.1474 36.4468 19.8526 36.4468 19.6505 36.4035C19.3901 36.3477 19.2056 36.24 18.8366 36.0248C15.5899 34.1307 6.66663 28.1807 6.66663 20V12.0293C6.66663 10.6968 6.66663 10.0305 6.88456 9.45783C7.07708 8.95189 7.38993 8.50045 7.79606 8.14254C8.25578 7.73739 8.87962 7.50345 10.1273 7.03557L19.0636 3.68444C19.4101 3.55451 19.5834 3.48954 19.7616 3.46379C19.9197 3.44094 20.0802 3.44094 20.2383 3.46379C20.4165 3.48954 20.5898 3.55451 20.9363 3.68444L29.8726 7.03557C31.1203 7.50345 31.7441 7.73739 32.2039 8.14254C32.61 8.50045 32.9228 8.95189 33.1154 9.45783C33.3333 10.0305 33.3333 10.6968 33.3333 12.0293V20Z" stroke="#37609B" stroke-width="2" stroke-linecap="round" stroke-linejoin="round"/>
</svg>
